<svg width="30" height="30" viewBox="0 0 30 30" fill="none" xmlns="http://www.w3.org/2000/svg">
<rect x="0.5" y="0.5" width="29" height="29" rx="14.5" stroke="#FEFDE9"/>
<path d="M18.3002 14.3786C18.2515 14.3552 18.2023 14.3326 18.1529 14.3108C18.0187 12.1891 16.8238 10.9668 14.8675 10.9543L14.8407 10.9542C13.6532 10.9542 12.664 11.4629 12.0553 12.3866L12.0074 12.4594L13.2175 13.2895L13.2673 13.214C13.6892 12.574 14.3561 12.4396 14.8412 12.4396L14.8584 12.4397C15.4684 12.4436 15.9265 12.6184 16.2201 12.9592C16.4147 13.1852 16.5524 13.4939 16.6302 13.8783C16.095 13.7975 15.5161 13.7742 14.9069 13.8092C13.0151 13.9182 11.7993 15.0281 11.8816 16.5713C11.9234 17.3561 12.3141 18.0309 12.9817 18.4718C13.5414 18.8412 14.2614 19.022 15.0085 18.9813C15.9969 18.9271 16.7732 18.5488 17.3161 17.8568C17.706 17.3597 17.9562 16.7344 18.0786 15.9486C18.4709 16.2099 18.7518 16.534 18.9144 16.9134C19.2225 17.6318 19.2395 18.8131 18.2735 19.7782C17.4176 20.6333 16.3859 21.0031 14.8253 21.0145C13.0928 21.0017 11.7843 20.4484 10.9359 19.3699C10.1376 18.355 9.72495 16.8845 9.70951 15.0007C9.72495 13.1154 10.1376 11.6449 10.9359 10.63C11.7843 9.55158 13.0928 8.99825 14.8239 8.98539C16.5697 8.99836 17.9019 9.55478 18.7833 10.6392C19.213 11.1679 19.5412 11.8365 19.7589 12.6265L19.7822 12.7114L21.2001 12.3332L21.1767 12.2471C20.9082 11.2574 20.4812 10.3979 19.9078 9.69234C18.7377 8.25287 17.0292 7.51522 14.829 7.5H14.8196C12.6239 7.51519 10.9339 8.25593 9.79666 9.70159C8.78782 10.9841 8.26747 12.7647 8.25004 14.9942L8.25 15.0006L8.25004 15.0059C8.26747 17.2353 8.78782 19.0159 9.79666 20.2984C10.9339 21.7441 12.6239 22.4848 14.8203 22.5H14.8296C16.7817 22.4864 18.1591 21.9739 19.2958 20.8382C20.7912 19.3443 20.7456 17.4701 20.2521 16.3192C19.8973 15.492 19.2223 14.821 18.3002 14.3786ZM13.3389 16.4908C13.2957 15.6797 14.1631 15.3398 14.9893 15.2922C15.1376 15.2836 15.2863 15.2793 15.4312 15.2793C15.8719 15.2793 16.2906 15.319 16.6771 15.3974C16.6033 16.1878 16.3862 16.7573 16.0314 17.0909C15.6804 17.421 15.2346 17.4814 14.9299 17.4981H14.9298C14.4187 17.5267 13.9389 17.3877 13.6464 17.1256C13.4557 16.9547 13.3522 16.7411 13.3389 16.4908Z" fill="#FEFDE9"/>
</svg>
