<svg width="990" height="292" viewBox="0 0 990 292" fill="none" xmlns="http://www.w3.org/2000/svg">
<path d="M869.658 97.2331C869.658 64.4208 884.099 37.629 929.829 37.629C975.559 37.629 990 64.4208 990 97.2331V172.19C990 205.002 975.559 231.794 929.829 231.794C884.099 231.794 869.658 205.002 869.658 172.19V97.2331ZM914.786 180.92C914.786 190.252 920.803 194.466 929.528 194.466C938.554 194.466 944.872 190.252 944.872 180.92V88.8042C944.872 79.4723 938.554 75.2579 929.528 75.2579C920.803 75.2579 914.786 79.4723 914.786 88.8042V180.92Z" fill="#F4B41A"/>
<path d="M732.78 97.2331C732.78 64.4208 747.221 37.629 792.951 37.629H858.537V67.7321H829.053C839.583 73.1506 850.113 84.2888 850.113 109.274V113.188C850.113 146 835.672 172.792 792.951 172.792H781.819C772.493 172.792 768.281 175.802 768.281 182.425C768.281 189.349 772.493 192.66 781.819 192.66H801.074C841.388 192.66 860.643 204.701 860.643 239.32C860.643 279.959 836.876 292 804.082 292H782.12C749.327 292 725.559 279.959 725.559 254.371C725.559 235.406 733.983 223.967 749.628 218.85C735.788 213.732 730.975 202.895 730.975 189.048C730.975 177.608 735.187 164.062 750.831 158.643C735.788 150.817 732.78 127.938 732.78 113.188V97.2331ZM762.865 242.029C762.865 249.254 767.077 254.371 776.404 254.371H812.506C821.833 254.371 826.045 249.254 826.045 242.029C826.045 233.901 821.833 230.289 812.506 230.289H776.404C767.077 230.289 762.865 233.901 762.865 242.029ZM777.908 121.918C777.908 131.25 783.925 135.464 791.146 135.464C798.667 135.464 804.985 131.25 804.985 121.918V88.8042C804.985 79.4723 798.667 75.2579 791.146 75.2579C783.925 75.2579 777.908 79.4723 777.908 88.8042V121.918Z" fill="#F4B41A"/>
<path d="M550.588 97.2331C550.588 64.4208 565.029 37.629 610.759 37.629C656.488 37.629 670.93 64.4208 670.93 97.2331V172.19C670.93 205.002 656.488 231.794 610.759 231.794C565.029 231.794 550.588 205.002 550.588 172.19V97.2331ZM595.716 180.92C595.716 190.252 601.733 194.466 610.458 194.466C619.483 194.466 625.801 190.252 625.801 180.92V88.8042C625.801 79.4723 619.483 75.2579 610.458 75.2579C601.733 75.2579 595.716 79.4723 595.716 88.8042V180.92Z" fill="#F4B41A"/>
<path d="M508.407 228.784C474.711 228.784 466.889 211.023 466.889 178.21V9.03105H512.017V40.6393H538.793V70.7424H505.699C511.115 75.8599 512.017 83.9877 512.017 89.7073V177.909C512.017 187.241 518.034 191.456 526.759 191.456H539.094V228.784H508.407Z" fill="#F4B41A"/>
<path d="M284.696 97.2331C284.696 64.4208 299.137 37.629 344.866 37.629C390.596 37.629 405.037 64.4208 405.037 97.2331V172.19C405.037 205.002 390.596 231.794 344.866 231.794C299.137 231.794 284.696 205.002 284.696 172.19V97.2331ZM329.824 180.92C329.824 190.252 335.841 194.466 344.566 194.466C353.591 194.466 359.909 190.252 359.909 180.92V88.8042C359.909 79.4723 353.591 75.2579 344.566 75.2579C335.841 75.2579 329.824 79.4723 329.824 88.8042V180.92Z" fill="#00A36C"/>
<path d="M197.511 283.703C211.993 274.86 222.659 260.931 227.426 244.638C227.426 244.638 176.514 242.318 161.209 290.595C161.209 290.595 189.064 290.617 208.627 263.78L197.511 283.703Z" fill="#00A36C"/>
<path d="M192.044 231.794C164.365 231.794 144.81 217.344 144.81 177.307V174.899C144.81 133.056 175.196 120.413 206.485 120.413H223.032V88.8042C223.032 79.4723 217.015 75.2579 208.29 75.2579C199.265 75.2579 192.947 79.4723 192.947 88.8042V106.264L147.818 111.984V97.2331C147.818 64.4208 162.259 37.629 207.989 37.629C253.719 37.629 268.16 64.4208 268.16 97.2331V228.784H238.075L235.668 211.023C225.439 223.666 206.786 231.794 192.044 231.794ZM189.938 172.19C189.938 190.854 197.76 194.466 206.485 194.466C215.511 194.466 223.032 190.252 223.032 177.307V142.99H210.095C195.955 142.99 189.938 149.613 189.938 165.266V172.19Z" fill="#00A36C"/>
<path d="M131.173 169.782C131.173 201.089 119.74 231.794 64.6838 231.794C11.4325 231.794 0 201.089 0 169.782V62.0125C0 30.7053 11.4325 0.00012207 64.6838 0.00012207C117.935 0.00012207 129.368 30.7053 129.368 62.0125V79.7733L81.2308 85.7939V54.1857C81.2308 41.8434 74.9128 37.629 64.3829 37.629C54.1539 37.629 48.1368 41.8434 48.1368 54.1857V177.909C48.1368 190.252 54.1539 194.466 67.3915 194.466C79.7265 194.466 86.0445 190.252 86.0445 177.909V167.674C86.0445 155.031 87.2479 147.505 92.0615 143.291H63.1795V113.188H131.173V169.782Z" fill="#00A36C"/>
</svg>
