<?xml version="1.0" encoding="utf-8"?>
<!-- Generator: Adobe Illustrator 26.0.3, SVG Export Plug-In . SVG Version: 6.00 Build 0)  -->
<svg version="1.1" id="Layer_1" xmlns="http://www.w3.org/2000/svg" xmlns:xlink="http://www.w3.org/1999/xlink" x="0px" y="0px"
	 viewBox="0 0 990 292" style="enable-background:new 0 0 990 292;" xml:space="preserve">
<style type="text/css">
	.st0{fill:#EEE683;}
	.st1{fill:#FEFDE9;}
</style>
<g id="Logo">
	<path class="st0" d="M869.7,97.2c0-32.8,14.4-59.6,60.2-59.6c45.7,0,60.2,26.8,60.2,59.6v75c0,32.8-14.4,59.6-60.2,59.6
		c-45.7,0-60.2-26.8-60.2-59.6V97.2z M914.8,180.9c0,9.3,6,13.5,14.7,13.5c9,0,15.3-4.2,15.3-13.5V88.8c0-9.3-6.3-13.5-15.3-13.5
		c-8.7,0-14.7,4.2-14.7,13.5V180.9z"/>
	<path class="st0" d="M732.8,97.2c0-32.8,14.4-59.6,60.2-59.6h65.6v30.1h-29.5c10.5,5.4,21.1,16.6,21.1,41.5v3.9
		c0,32.8-14.4,59.6-57.2,59.6h-11.1c-9.3,0-13.5,3-13.5,9.6c0,6.9,4.2,10.2,13.5,10.2h19.3c40.3,0,59.6,12,59.6,46.7
		c0,40.6-23.8,52.7-56.6,52.7h-22c-32.8,0-56.6-12-56.6-37.6c0-19,8.4-30.4,24.1-35.5c-13.8-5.1-18.7-16-18.7-29.8
		c0-11.4,4.2-25,19.9-30.4c-15-7.8-18.1-30.7-18.1-45.5V97.2z M762.9,242c0,7.2,4.2,12.3,13.5,12.3h36.1c9.3,0,13.5-5.1,13.5-12.3
		c0-8.1-4.2-11.7-13.5-11.7h-36.1C767.1,230.3,762.9,233.9,762.9,242z M777.9,121.9c0,9.3,6,13.5,13.2,13.5
		c7.5,0,13.8-4.2,13.8-13.5V88.8c0-9.3-6.3-13.5-13.8-13.5c-7.2,0-13.2,4.2-13.2,13.5V121.9z"/>
	<path class="st0" d="M550.6,97.2c0-32.8,14.4-59.6,60.2-59.6c45.7,0,60.2,26.8,60.2,59.6v75c0,32.8-14.4,59.6-60.2,59.6
		c-45.7,0-60.2-26.8-60.2-59.6V97.2z M595.7,180.9c0,9.3,6,13.5,14.7,13.5c9,0,15.3-4.2,15.3-13.5V88.8c0-9.3-6.3-13.5-15.3-13.5
		c-8.7,0-14.7,4.2-14.7,13.5V180.9z"/>
	<path class="st0" d="M508.4,228.8c-33.7,0-41.5-17.8-41.5-50.6V9H512v31.6h26.8v30.1h-33.1c5.4,5.1,6.3,13.2,6.3,19v88.2
		c0,9.3,6,13.5,14.7,13.5h12.3v37.3H508.4z"/>
	<path class="st1" d="M284.7,97.2c0-32.8,14.4-59.6,60.2-59.6c45.7,0,60.2,26.8,60.2,59.6v75c0,32.8-14.4,59.6-60.2,59.6
		c-45.7,0-60.2-26.8-60.2-59.6V97.2z M329.8,180.9c0,9.3,6,13.5,14.7,13.5c9,0,15.3-4.2,15.3-13.5V88.8c0-9.3-6.3-13.5-15.3-13.5
		c-8.7,0-14.7,4.2-14.7,13.5V180.9z"/>
	<path class="st1" d="M197.5,283.7c14.5-8.8,25.1-22.8,29.9-39.1c0,0-50.9-2.3-66.2,46c0,0,27.9,0,47.4-26.8L197.5,283.7z"/>
	<path class="st1" d="M192,231.8c-27.7,0-47.2-14.5-47.2-54.5v-2.4c0-41.8,30.4-54.5,61.7-54.5H223V88.8c0-9.3-6-13.5-14.7-13.5
		c-9,0-15.3,4.2-15.3,13.5v17.5l-45.1,5.7V97.2c0-32.8,14.4-59.6,60.2-59.6s60.2,26.8,60.2,59.6v131.6h-30.1l-2.4-17.8
		C225.4,223.7,206.8,231.8,192,231.8z M189.9,172.2c0,18.7,7.8,22.3,16.5,22.3c9,0,16.5-4.2,16.5-17.2V143h-12.9
		c-14.1,0-20.2,6.6-20.2,22.3V172.2z"/>
	<path class="st1" d="M131.2,169.8c0,31.3-11.4,62-66.5,62c-53.3,0-64.7-30.7-64.7-62V62C0,30.7,11.4,0,64.7,0
		c53.3,0,64.7,30.7,64.7,62v17.8l-48.1,6V54.2c0-12.3-6.3-16.6-16.8-16.6c-10.2,0-16.2,4.2-16.2,16.6v123.7c0,12.3,6,16.6,19.3,16.6
		c12.3,0,18.7-4.2,18.7-16.6v-10.2c0-12.6,1.2-20.2,6-24.4H63.2v-30.1h68V169.8z"/>
</g>
</svg>
