<svg width="30" height="30" viewBox="0 0 30 30" fill="none" xmlns="http://www.w3.org/2000/svg">
<rect x="0.5" y="0.5" width="29" height="29" rx="14.5" stroke="#FEFDE9"/>
<path fill-rule="evenodd" clip-rule="evenodd" d="M11.5988 6.7995C12.4785 6.759 12.759 6.75 15 6.75C17.241 6.75 17.5215 6.75975 18.4005 6.7995C19.2795 6.83925 19.8795 6.9795 20.4045 7.18275C20.9542 7.3905 21.453 7.71525 21.8655 8.13525C22.2855 8.547 22.6095 9.045 22.8165 9.5955C23.0205 10.1205 23.16 10.7205 23.2005 11.598C23.241 12.4792 23.25 12.7597 23.25 15C23.25 17.2402 23.2402 17.5215 23.2005 18.4012C23.1607 19.2787 23.0205 19.8787 22.8165 20.4037C22.6094 20.9543 22.2849 21.4531 21.8655 21.8655C21.453 22.2855 20.9542 22.6095 20.4045 22.8165C19.8795 23.0205 19.2795 23.16 18.402 23.2005C17.5215 23.241 17.241 23.25 15 23.25C12.759 23.25 12.4785 23.2402 11.5988 23.2005C10.7213 23.1607 10.1213 23.0205 9.59625 22.8165C9.04572 22.6094 8.54691 22.2849 8.1345 21.8655C7.71493 21.4534 7.39016 20.9548 7.18275 20.4045C6.9795 19.8795 6.84 19.2795 6.7995 18.402C6.759 17.5207 6.75 17.2402 6.75 15C6.75 12.7597 6.75975 12.4785 6.7995 11.5995C6.83925 10.7205 6.9795 10.1205 7.18275 9.5955C7.39038 9.0451 7.71541 8.54655 8.13525 8.1345C8.54715 7.71503 9.04544 7.39025 9.5955 7.18275C10.1205 6.9795 10.7213 6.84 11.5988 6.7995ZM18.333 8.2845C17.463 8.24475 17.202 8.2365 14.9992 8.2365C12.7965 8.2365 12.5355 8.24475 11.6655 8.2845C10.8608 8.32125 10.4243 8.4555 10.1333 8.56875C9.7485 8.71875 9.47325 8.8965 9.1845 9.18525C8.91055 9.45134 8.69986 9.77557 8.568 10.134C8.45475 10.425 8.3205 10.8615 8.28375 11.6662C8.244 12.5362 8.23575 12.7972 8.23575 15C8.23575 17.2028 8.244 17.4637 8.28375 18.3337C8.3205 19.1385 8.45475 19.575 8.568 19.866C8.7 20.2238 8.91075 20.5485 9.1845 20.8148C9.45075 21.0885 9.7755 21.2993 10.1333 21.4313C10.4243 21.5445 10.8608 21.6788 11.6655 21.7155C12.5355 21.7552 12.7957 21.7635 14.9992 21.7635C17.2027 21.7635 17.463 21.7552 18.333 21.7155C19.1378 21.6788 19.5742 21.5445 19.8652 21.4313C20.25 21.2813 20.5253 21.1035 20.814 20.8148C21.0878 20.5485 21.2985 20.2238 21.4305 19.866C21.5437 19.575 21.678 19.1385 21.7147 18.3337C21.7545 17.4637 21.7628 17.2028 21.7628 15C21.7628 12.7972 21.7545 12.5362 21.7147 11.6662C21.678 10.8615 21.5437 10.425 21.4305 10.134C21.2805 9.74925 21.1028 9.474 20.814 9.18525C20.5479 8.9113 20.2237 8.70061 19.8652 8.56875C19.5742 8.4555 19.1378 8.32125 18.333 8.2845ZM13.9455 17.5433C14.534 17.7882 15.1893 17.8213 15.7994 17.6368C16.4096 17.4523 16.9368 17.0617 17.291 16.5317C17.6451 16.0017 17.8043 15.3652 17.7413 14.7308C17.6783 14.0965 17.397 13.5037 16.9455 13.0538C16.6577 12.7661 16.3097 12.5459 15.9265 12.4089C15.5433 12.2719 15.1346 12.2215 14.7296 12.2615C14.3247 12.3014 13.9336 12.4306 13.5846 12.6398C13.2356 12.8491 12.9373 13.1331 12.7112 13.4714C12.4851 13.8097 12.3369 14.194 12.2771 14.5965C12.2174 14.999 12.2476 15.4097 12.3657 15.7991C12.4837 16.1886 12.6866 16.547 12.9598 16.8485C13.233 17.1501 13.5696 17.3874 13.9455 17.5433ZM12.0015 12.0015C12.3953 11.6077 12.8627 11.2954 13.3772 11.0823C13.8917 10.8692 14.4431 10.7595 15 10.7595C15.5569 10.7595 16.1083 10.8692 16.6228 11.0823C17.1373 11.2954 17.6047 11.6077 17.9985 12.0015C18.3923 12.3953 18.7046 12.8627 18.9177 13.3772C19.1308 13.8917 19.2405 14.4431 19.2405 15C19.2405 15.5569 19.1308 16.1083 18.9177 16.6228C18.7046 17.1373 18.3923 17.6047 17.9985 17.9985C17.2032 18.7938 16.1247 19.2405 15 19.2405C13.8753 19.2405 12.7968 18.7938 12.0015 17.9985C11.2062 17.2032 10.7595 16.1247 10.7595 15C10.7595 13.8753 11.2062 12.7968 12.0015 12.0015ZM20.181 11.391C20.2786 11.299 20.3567 11.1883 20.4107 11.0655C20.4648 10.9427 20.4936 10.8103 20.4956 10.6762C20.4975 10.5421 20.4725 10.4089 20.4221 10.2846C20.3717 10.1603 20.2968 10.0474 20.202 9.95253C20.1071 9.85768 19.9942 9.78282 19.8699 9.73239C19.7456 9.68196 19.6124 9.65698 19.4783 9.65894C19.3442 9.66089 19.2118 9.68974 19.089 9.74377C18.9662 9.7978 18.8555 9.87592 18.7635 9.9735C18.5845 10.1633 18.4865 10.4153 18.4903 10.6762C18.4941 10.9371 18.5994 11.1862 18.7839 11.3706C18.9683 11.5551 19.2174 11.6604 19.4783 11.6642C19.7392 11.668 19.9912 11.57 20.181 11.391Z" fill="#FEFDE9"/>
</svg>
