<svg width="30" height="30" viewBox="0 0 30 30" fill="none" xmlns="http://www.w3.org/2000/svg">
<rect x="0.5" y="0.5" width="29" height="29" rx="14.5" stroke="#FEFDE9"/>
<path fill-rule="evenodd" clip-rule="evenodd" d="M22.7727 19.2803C22.5282 19.8848 21.9537 20.1676 21.6267 20.3003C21.3746 20.401 21.1151 20.482 20.8504 20.5426L20.8332 20.6086C20.7649 20.8975 20.6017 21.1553 20.3697 21.3406C20.127 21.5339 19.8233 21.6344 19.5132 21.6241H19.5019L19.4787 21.6233C19.314 21.6165 19.1502 21.5941 18.9897 21.5566C18.8224 21.5197 18.6517 21.5008 18.4804 21.5003C18.3834 21.5003 18.2852 21.5078 18.1857 21.5228C17.9884 21.5838 17.8067 21.6869 17.6532 21.8251C16.9622 22.4561 16.073 22.8268 15.1384 22.8736L15.1122 22.8751H15.0852L14.9892 22.8736L14.9127 22.8751H14.8872L14.8624 22.8736C13.9276 22.827 13.0381 22.4563 12.3469 21.8251C12.1936 21.6873 12.0122 21.5844 11.8152 21.5236C11.7177 21.5086 11.6202 21.5011 11.5227 21.5011C11.3542 21.5031 11.1874 21.5231 11.0224 21.5611C10.8724 21.5976 10.7199 21.6211 10.5649 21.6316C10.2402 21.6593 9.91667 21.5652 9.65745 21.3676C9.41213 21.1812 9.23883 20.9157 9.16695 20.6161L9.1497 20.5426C8.88509 20.4823 8.62557 20.4015 8.37345 20.3011C8.04645 20.1668 7.47345 19.8841 7.2297 19.2826C7.17124 19.1384 7.13678 18.9856 7.1277 18.8303V18.8213C7.112 18.5158 7.20411 18.2146 7.38795 17.9701C7.5747 17.7226 7.8522 17.5411 8.17695 17.4803C8.74945 17.3632 9.25821 17.038 9.60495 16.5676L9.61695 16.5518L9.62895 16.5368C9.79245 16.3353 9.9357 16.1176 10.0587 15.8836C9.97875 15.8576 9.89993 15.8284 9.82245 15.7958C9.56763 15.6908 9.3294 15.5493 9.1152 15.3758C8.88645 15.1838 8.4057 14.6813 8.54145 13.9216L8.5587 13.8271L8.5917 13.7371C8.71168 13.4048 8.9308 13.1173 9.21945 12.9136C9.51292 12.7062 9.86606 12.6004 10.2252 12.6121C10.2049 11.8118 10.2927 11.0108 10.4877 10.2346L10.5072 10.1558L10.5379 10.0808C10.8919 9.21009 11.4918 8.46134 12.2644 7.92607C13.028 7.39769 13.9362 7.11843 14.8647 7.12657L15.1227 7.12432C16.0549 7.11362 16.9675 7.39273 17.7342 7.92307C18.5076 8.45823 19.1086 9.20693 19.4637 10.0778L19.4944 10.1528L19.5147 10.2323C19.7085 11.0069 19.7965 11.8041 19.7764 12.6023H19.7824C19.9932 12.6023 20.2002 12.6421 20.3937 12.7156C20.6697 12.8056 20.9112 12.9691 21.0949 13.1821C21.2997 13.4191 21.4272 13.7071 21.4707 14.0078L21.4812 14.0776L21.4819 14.1481C21.4977 14.9956 20.8444 15.5153 20.1769 15.7966L20.1687 15.8003C20.0929 15.8311 20.0161 15.8593 19.9384 15.8851C20.1259 16.2496 20.3734 16.5706 20.6667 16.8331C21.0237 17.1518 21.4392 17.3753 21.8787 17.4916C22.1817 17.5621 22.4397 17.7391 22.6152 17.9738C22.8019 18.2228 22.8889 18.5243 22.8739 18.8228V18.8273C22.8653 18.9825 22.8314 19.1353 22.7734 19.2796M21.7294 18.8581C21.7414 18.8284 21.7484 18.797 21.7504 18.7651C21.7527 18.7232 21.7402 18.6818 21.7152 18.6481C21.7036 18.6315 21.6888 18.6175 21.6717 18.6068C21.6545 18.5961 21.6354 18.5889 21.6154 18.5858C21.5291 18.5636 21.4435 18.5384 21.3589 18.5101L21.3559 18.5086C21.1382 18.4364 20.9269 18.3458 20.7244 18.2378C20.4338 18.0822 20.1629 17.8924 19.9174 17.6723C19.4196 17.2248 19.0298 16.6701 18.7774 16.0501L18.7737 16.0411C18.7181 15.9442 18.6833 15.8368 18.6715 15.7258C18.6598 15.6147 18.6713 15.5024 18.7054 15.3961C18.7609 15.2694 18.8528 15.1621 18.9694 15.0878L19.0069 15.0631C19.1809 14.9528 19.3879 14.8831 19.5499 14.8283L19.5799 14.8186L19.5874 14.8163L19.5957 14.8133C19.6507 14.7943 19.6989 14.7766 19.7404 14.7601L19.7599 14.7518L19.7734 14.7458H19.7749C19.8595 14.7084 19.9416 14.6658 20.0209 14.6183C20.2962 14.4496 20.3592 14.2861 20.3569 14.1683C20.3441 14.076 20.305 13.9894 20.2444 13.9186C20.1852 13.8503 20.1068 13.8014 20.0194 13.7783L20.0149 13.7761C19.914 13.7324 19.8029 13.7174 19.6939 13.7326C19.6494 13.7402 19.6061 13.7536 19.5649 13.7723C19.5024 13.8064 19.4375 13.836 19.3707 13.8608L19.3632 13.8638C19.3238 13.879 19.2837 13.8925 19.2432 13.9043L19.2387 13.9051C19.1346 13.9361 19.0275 13.9557 18.9192 13.9636C18.7882 13.9672 18.6606 13.9217 18.5614 13.8361L18.5824 13.4536L18.5854 13.4078C18.7155 12.439 18.6605 11.4544 18.4234 10.5061C18.1516 9.83707 17.6908 9.26166 17.0974 8.85007C16.5211 8.45101 15.8349 8.24131 15.1339 8.25007L14.8624 8.25157C14.1621 8.24372 13.4767 8.45393 12.9012 8.85307C12.3088 9.26457 11.849 9.83976 11.5782 10.5083C11.3414 11.4551 11.2862 12.4382 11.4154 13.4056C11.4244 13.5491 11.4327 13.6926 11.4402 13.8361C11.3298 13.9275 11.1887 13.9734 11.0457 13.9643C10.9486 13.9602 10.8522 13.9466 10.7577 13.9238L10.7524 13.9231C10.6158 13.8913 10.4843 13.8406 10.3617 13.7723C10.3099 13.7478 10.2532 13.7355 10.1959 13.7363C10.0775 13.7307 9.96068 13.7653 9.86445 13.8346C9.76543 13.9055 9.69035 14.0049 9.6492 14.1196C9.6162 14.3056 9.75195 14.4608 9.92145 14.5778L9.96645 14.6078C10.0598 14.6675 10.1585 14.7185 10.2612 14.7601C10.3239 14.7857 10.3877 14.8085 10.4524 14.8283C10.6415 14.8867 10.8236 14.9657 10.9954 15.0638L11.0359 15.0901C11.1517 15.1633 11.2425 15.27 11.2962 15.3961C11.3291 15.5029 11.3399 15.6153 11.3281 15.7264C11.3162 15.8375 11.2819 15.9451 11.2272 16.0426L11.2249 16.0501C11.0402 16.4798 10.7971 16.8821 10.5027 17.2456C10.1696 17.6893 9.7377 18.0494 9.2412 18.2971C8.9712 18.4306 8.68395 18.5281 8.3862 18.5858C8.36623 18.5889 8.34711 18.5961 8.32997 18.6068C8.31283 18.6175 8.29802 18.6315 8.28645 18.6481C8.26115 18.6817 8.24841 18.7231 8.25045 18.7651C8.2526 18.7973 8.25995 18.8289 8.2722 18.8588C8.31793 18.9571 8.3918 19.0396 8.48445 19.0958C8.63495 19.1993 8.8542 19.2933 9.1422 19.3778C9.2277 19.4028 9.3192 19.4268 9.4167 19.4498C9.5912 19.4913 9.7837 19.5293 9.9942 19.5638C10.0887 19.5788 10.1292 19.7438 10.1839 20.0116C10.2054 20.1241 10.2309 20.2353 10.2604 20.3453C10.2703 20.3954 10.298 20.4402 10.3384 20.4713C10.3782 20.5013 10.4277 20.5156 10.4757 20.5088C10.5732 20.5038 10.6689 20.4896 10.7629 20.4661C11.0109 20.4084 11.2644 20.3777 11.5189 20.3746C11.7019 20.3746 11.8837 20.3911 12.0642 20.4241C12.4484 20.5284 12.8029 20.7213 13.0992 20.9873C13.5974 21.4453 14.2399 21.7148 14.9157 21.7493C14.9382 21.7493 14.9607 21.7483 14.9832 21.7463C15.0109 21.7486 15.0477 21.7493 15.0859 21.7493C15.7618 21.7148 16.4043 21.4453 16.9024 20.9873C17.1987 20.7213 17.5532 20.5284 17.9374 20.4241C18.1174 20.3911 18.2994 20.3746 18.4834 20.3746C18.7384 20.3756 18.9907 20.4038 19.2402 20.4593C19.3347 20.4818 19.4297 20.4948 19.5252 20.4983H19.5417C19.5876 20.5021 19.6333 20.4882 19.6692 20.4593C19.7067 20.4291 19.7322 20.3866 19.7412 20.3393C19.7712 20.2273 19.7967 20.1171 19.8177 20.0086C19.8724 19.7416 19.9129 19.5781 20.0067 19.5623C20.2367 19.5243 20.4447 19.4828 20.6307 19.4378C20.7107 19.4178 20.7867 19.3976 20.8587 19.3771C21.1222 19.3001 21.3284 19.2146 21.4774 19.1206C21.5224 19.0907 21.5657 19.0584 21.6072 19.0238C21.66 18.9792 21.7019 18.923 21.7294 18.8596V18.8581Z" fill="#FEFDE9"/>
</svg>
